ffmpeg version 3.4.8-0ubuntu0.2 Copyright (c) 2000-2020 the FFmpeg developers
  built with gcc 7 (Ubuntu 7.5.0-3ubuntu1~18.04)
  configuration: --prefix=/usr --extra-version=0ubuntu0.2 --toolchain=hardened --libdir=/usr/lib/x86_64-linux-gnu --incdir=/usr/include/x86_64-linux-gnu --enable-gpl --disable-stripping --enable-avresample --enable-avisynth --enable-gnutls --enable-ladspa --enable-libass --enable-libbluray --enable-libbs2b --enable-libcaca --enable-libcdio --enable-libflite --enable-libfontconfig --enable-libfreetype --enable-libfribidi --enable-libgme --enable-libgsm --enable-libmp3lame --enable-libmysofa --enable-libopenjpeg --enable-libopenmpt --enable-libopus --enable-libpulse --enable-librubberband --enable-librsvg --enable-libshine --enable-libsnappy --enable-libsoxr --enable-libspeex --enable-libssh --enable-libtheora --enable-libtwolame --enable-libvorbis --enable-libvpx --enable-libwavpack --enable-libwebp --enable-libx265 --enable-libxml2 --enable-libxvid --enable-libzmq --enable-libzvbi --enable-omx --enable-openal --enable-opengl --enable-sdl2 --enable-libdc1394 --enable-libdrm --enable-libiec61883 --enable-chromaprint --enable-frei0r --enable-libopencv --enable-libx264 --enable-shared
  libavutil      55. 78.100 / 55. 78.100
  libavcodec     57.107.100 / 57.107.100
  libavformat    57. 83.100 / 57. 83.100
  libavdevice    57. 10.100 / 57. 10.100
  libavfilter     6.107.100 /  6.107.100
  libavresample   3.  7.  0 /  3.  7.  0
  libswscale      4.  8.100 /  4.  8.100
  libswresample   2.  9.100 /  2.  9.100
  libpostproc    54.  7.100 / 54.  7.100
[m4v @ 0x5644e8b6d4a0] Format m4v detected only with low score of 5, misdetection possible!
[mpeg4 @ 0x5644e8b6eaa0] time_increment_bits 0 is invalid in relation to the current bitstream, this is likely caused by a missing VOL header
[mpeg4 @ 0x5644e8b6eaa0] time_increment_bits set to 16 bits, based on bitstream analysis
[mpeg4 @ 0x5644e8b6eaa0] time_increment_bits 4 is invalid in relation to the current bitstream, this is likely caused by a missing VOL header
[mpeg4 @ 0x5644e8b6eaa0] time_increment_bits set to 16 bits, based on bitstream analysis
[mpeg4 @ 0x5644e8b6eaa0] looks like this file was encoded with (divx4/(old)xvid/opendivx) -> forcing low_delay flag
[mpeg4 @ 0x5644e8b6eaa0] Marker bit missing at 13777 of 16000 before time_increment_resolution
[mpeg4 @ 0x5644e8b6eaa0] Marker bit missing at 13794 of 16000 before fixed_vop_rate
[mpeg4 @ 0x5644e8b6eaa0] Marker bit missing at 13796 of 16000 before width
[mpeg4 @ 0x5644e8b6eaa0] Marker bit missing at 13810 of 16000 before height
[mpeg4 @ 0x5644e8b6eaa0] Marker bit missing at 13824 of 16000 after height
[mpeg4 @ 0x5644e8b6eaa0] Marker bit missing at 13845 of 16000 in complexity estimation part 1
Input #0, m4v, from '/root/results/2020-11-30_15:05:31/nyan_cat-trimmed356_0.06870.mp4':
  Duration: N/A, start: 5.084564, bitrate: N/A
    Stream #0:0: Video: mpeg4, yuv420p, 1024x329, 1240 tbr, 1200k tbn, 1240 tbc
Stream mapping:
  Stream #0:0 -> #0:0 (mpeg4 (native) -> mpeg4 (native))
Press [q] to stop, [?] for help
[mpeg4 @ 0x5644e8b711a0] time_increment_bits 4 is invalid in relation to the current bitstream, this is likely caused by a missing VOL header
[mpeg4 @ 0x5644e8b711a0] time_increment_bits set to 16 bits, based on bitstream analysis
[mpeg4 @ 0x5644e8b711a0] looks like this file was encoded with (divx4/(old)xvid/opendivx) -> forcing low_delay flag
[mpeg4 @ 0x5644e8b711a0] I cbpy damaged at 4 0
[mpeg4 @ 0x5644e8b711a0] Error at MB: 4
[mpeg4 @ 0x5644e8b711a0] marker does not match f_code
[mpeg4 @ 0x5644e8b711a0] I cbpc damaged at 1 0
[mpeg4 @ 0x5644e8b711a0] Error at MB: 1
[mpeg4 @ 0x5644e8b711a0] marker does not match f_code
    Last message repeated 6 times
[mpeg4 @ 0x5644e8b711a0] concealing 1344 DC, 1344 AC, 1344 MV errors in I frame
[mpeg4 @ 0x5644e8b93500] Marker bit missing at 13777 of 16000 before time_increment_resolution
[mpeg4 @ 0x5644e8b93500] Marker bit missing at 13794 of 16000 before fixed_vop_rate
[mpeg4 @ 0x5644e8b93500] Marker bit missing at 13796 of 16000 before width
[mpeg4 @ 0x5644e8b93500] Marker bit missing at 13810 of 16000 before height
[mpeg4 @ 0x5644e8b93500] Marker bit missing at 13824 of 16000 after height
[mpeg4 @ 0x5644e8b93500] Marker bit missing at 13845 of 16000 in complexity estimation part 1
[mpeg4 @ 0x5644e8b93500] header damaged
[avi @ 0x5644e8b85d40] Frame rate very high for a muxer not efficiently supporting it.
Please consider specifying a lower framerate, a different muxer or -vsync 2
Output #0, avi, to '/root/results/2020-11-30_15:05:31/nyan_cat-trimmed356_0.06870.avi':
  Metadata:
    ISFT            : Lavf57.83.100
    Stream #0:0: Video: mpeg4 (FMP4 / 0x34504D46), yuv420p, 1024x329, q=2-31, 200 kb/s, 1240 fps, 600 tbn, 1240 tbc
    Metadata:
      encoder         : Lavc57.107.100 mpeg4
    Side data:
      cpb: bitrate max/min/avg: 0/0/200000 buffer size: 0 vbv_delay: -1
Error while decoding stream #0:0: Operation not permitted
frame=    0 fps=0.0 q=0.0 Lsize=       6kB time=00:00:00.00 bitrate=N/A dup=0 drop=1 speed=   0x    
video:0kB audio:0kB subtitle:0kB other streams:0kB global headers:0kB muxing overhead: unknown
Output file is empty, nothing was encoded (check -ss / -t / -frames parameters if used)
